<svg viewBox="0 0 800 600" xmlns="http://www.w3.org/2000/svg">
  <defs>
    <linearGradient id="bgGradient" x1="0%" y1="0%" x2="100%" y2="100%">
      <stop offset="0%" style="stop-color:#4361ee;stop-opacity:0.2" />
      <stop offset="100%" style="stop-color:#3a0ca3;stop-opacity:0.1" />
    </linearGradient>
  </defs>
  
  <!-- Background -->
  <rect width="800" height="600" fill="url(#bgGradient)" rx="20" />
  
  <!-- Blockchain network -->
  <g transform="translate(400, 300)">
    <circle cx="0" cy="0" r="120" fill="#f8f9fa" stroke="#4cc9f0" stroke-width="2" />
    <circle cx="0" cy="0" r="30" fill="#4361ee" />
    
    <!-- Network nodes -->
    <g>
      <circle cx="100" cy="60" r="20" fill="#3a0ca3" />
      <circle cx="-100" cy="-60" r="20" fill="#3a0ca3" />
      <circle cx="0" cy="-110" r="20" fill="#3a0ca3" />
      <circle cx="100" cy="-60" r="20" fill="#3a0ca3" />
      <circle cx="0" cy="110" r="20" fill="#3a0ca3" />
      <circle cx="-100" cy="60" r="20" fill="#3a0ca3" />
      
      <!-- Connection lines -->
      <line x1="0" y1="0" x2="100" y2="60" stroke="#4cc9f0" stroke-width="2" />
      <line x1="0" y1="0" x2="-100" y2="-60" stroke="#4cc9f0" stroke-width="2" />
      <line x1="0" y1="0" x2="0" y2="-110" stroke="#4cc9f0" stroke-width="2" />
      <line x1="0" y1="0" x2="100" y2="-60" stroke="#4cc9f0" stroke-width="2" />
      <line x1="0" y1="0" x2="0" y2="110" stroke="#4cc9f0" stroke-width="2" />
      <line x1="0" y1="0" x2="-100" y2="60" stroke="#4cc9f0" stroke-width="2" />
      
      <line x1="100" y1="60" x2="100" y2="-60" stroke="#4cc9f0" stroke-width="1" stroke-dasharray="5,5" />
      <line x1="-100" y1="-60" x2="0" y2="-110" stroke="#4cc9f0" stroke-width="1" stroke-dasharray="5,5" />
      <line x1="0" y1="-110" x2="100" y2="-60" stroke="#4cc9f0" stroke-width="1" stroke-dasharray="5,5" />
      <line x1="0" y1="110" x2="100" y2="60" stroke="#4cc9f0" stroke-width="1" stroke-dasharray="5,5" />
      <line x1="-100" y1="60" x2="0" y2="110" stroke="#4cc9f0" stroke-width="1" stroke-dasharray="5,5" />
      <line x1="-100" y1="-60" x2="-100" y2="60" stroke="#4cc9f0" stroke-width="1" stroke-dasharray="5,5" />
    </g>
  </g>
  
  <!-- Freelancer -->
  <g transform="translate(150, 250)">
    <circle cx="0" cy="0" r="50" fill="#f72585" opacity="0.2" />
    <circle cx="0" cy="-25" r="25" fill="#f72585" />
    <rect x="-20" y="5" width="40" height="50" rx="5" fill="#f72585" />
    <rect x="-40" y="35" width="80" height="10" rx="5" fill="#f72585" />
    <text x="0" y="80" font-family="Arial" font-size="16" fill="#f72585" text-anchor="middle">Freelancer</text>
  </g>
  
  <!-- Client -->
  <g transform="translate(650, 250)">
    <circle cx="0" cy="0" r="50" fill="#4361ee" opacity="0.2" />
    <circle cx="0" cy="-25" r="25" fill="#4361ee" />
    <rect x="-20" y="5" width="40" height="50" rx="5" fill="#4361ee" />
    <rect x="-40" y="35" width="80" height="10" rx="5" fill="#4361ee" />
    <text x="0" y="80" font-family="Arial" font-size="16" fill="#4361ee" text-anchor="middle">Client</text>
  </g>
  
  <!-- Document with lock -->
  <g transform="translate(400, 150)">
    <rect x="-40" y="-60" width="80" height="100" fill="white" stroke="#3a0ca3" stroke-width="2" rx="5" />
    <line x1="-20" y1="-40" x2="20" y2="-40" stroke="#3a0ca3" stroke-width="2" />
    <line x1="-20" y1="-25" x2="20" y2="-25" stroke="#3a0ca3" stroke-width="2" />
    <line x1="-20" y1="-10" x2="20" y2="-10" stroke="#3a0ca3" stroke-width="2" />
    <line x1="-20" y1="5" x2="0" y2="5" stroke="#3a0ca3" stroke-width="2" />
    
    <circle cx="0" cy="20" r="20" fill="#4cc9f0" />
    <rect x="-10" y="10" width="20" height="20" fill="#4cc9f0" />
    <rect x="-15" y="10" width="30" height="10" rx="5" fill="#3a0ca3" />
  </g>
  
  <!-- Connecting arrows -->
  <g>
    <path d="M210 250 L350 250" stroke="#4361ee" stroke-width="2" fill="none" />
    <polygon points="350,250 340,245 340,255" fill="#4361ee" />
    
    <path d="M450 250 L590 250" stroke="#4361ee" stroke-width="2" fill="none" />
    <polygon points="590,250 580,245 580,255" fill="#4361ee" />
  </g>
  
  <!-- Blockchain text -->
  <text x="400" y="430" font-family="Arial" font-weight="bold" font-size="24" fill="#3a0ca3" text-anchor="middle">Blockchain Escrow</text>
  
  <!-- Stars for rating -->
  <g transform="translate(400, 470)">
    <polygon points="0,0 7,20 -20,8 20,8 -7,20" fill="#f7b801" transform="translate(-50, 0)" />
    <polygon points="0,0 7,20 -20,8 20,8 -7,20" fill="#f7b801" transform="translate(-25, 0)" />
    <polygon points="0,0 7,20 -20,8 20,8 -7,20" fill="#f7b801" transform="translate(0, 0)" />
    <polygon points="0,0 7,20 -20,8 20,8 -7,20" fill="#f7b801" transform="translate(25, 0)" />
    <polygon points="0,0 7,20 -20,8 20,8 -7,20" fill="#f7b801" transform="translate(50, 0)" />
  </g>
  
  <text x="400" y="510" font-family="Arial" font-size="18" fill="#3a0ca3" text-anchor="middle">Immutable Rating System</text>
</svg>
